<mxfile host="app.diagrams.net" modified="2023-01-15T20:34:59.171Z" agent="5.0 (Windows NT 10.0; Win64; x64) AppleWebKit/537.36 (KHTML, like Gecko) Chrome/109.0.0.0 Safari/537.36" etag="87FsPEU02G-b1e3D7BC_" version="20.8.5" type="github">
  <diagram id="R2lEEEUBdFMjLlhIrx00" name="Page-1">
    <mxGraphModel dx="936" dy="502" grid="1" gridSize="10" guides="1" tooltips="1" connect="1" arrows="1" fold="1" page="1" pageScale="1" pageWidth="850" pageHeight="1100" math="0" shadow="0" extFonts="Permanent Marker^https://fonts.googleapis.com/css?family=Permanent+Marker">
      <root>
        <mxCell id="0" />
        <mxCell id="1" parent="0" />
        <mxCell id="Q9K2xUCK_X7UjLqDI4FW-8" style="edgeStyle=orthogonalEdgeStyle;rounded=0;orthogonalLoop=1;jettySize=auto;html=1;fontSize=17;endArrow=none;endFill=0;" edge="1" parent="1" source="Q9K2xUCK_X7UjLqDI4FW-7" target="Q9K2xUCK_X7UjLqDI4FW-9">
          <mxGeometry relative="1" as="geometry">
            <mxPoint x="190" y="100" as="targetPoint" />
          </mxGeometry>
        </mxCell>
        <mxCell id="Q9K2xUCK_X7UjLqDI4FW-17" style="edgeStyle=orthogonalEdgeStyle;rounded=0;orthogonalLoop=1;jettySize=auto;html=1;fontSize=17;endArrow=none;endFill=0;entryX=0.5;entryY=1;entryDx=0;entryDy=0;" edge="1" parent="1" source="Q9K2xUCK_X7UjLqDI4FW-7" target="Q9K2xUCK_X7UjLqDI4FW-13">
          <mxGeometry relative="1" as="geometry">
            <mxPoint x="100" y="140" as="targetPoint" />
          </mxGeometry>
        </mxCell>
        <mxCell id="Q9K2xUCK_X7UjLqDI4FW-18" style="edgeStyle=orthogonalEdgeStyle;rounded=0;orthogonalLoop=1;jettySize=auto;html=1;exitX=0.5;exitY=1;exitDx=0;exitDy=0;fontSize=17;endArrow=none;endFill=0;startArrow=none;" edge="1" parent="1" source="Q9K2xUCK_X7UjLqDI4FW-11">
          <mxGeometry relative="1" as="geometry">
            <mxPoint x="420" y="160" as="targetPoint" />
          </mxGeometry>
        </mxCell>
        <mxCell id="Q9K2xUCK_X7UjLqDI4FW-20" style="edgeStyle=orthogonalEdgeStyle;rounded=0;orthogonalLoop=1;jettySize=auto;html=1;fontSize=17;endArrow=none;endFill=0;" edge="1" parent="1" source="Q9K2xUCK_X7UjLqDI4FW-7">
          <mxGeometry relative="1" as="geometry">
            <mxPoint x="420" y="220" as="targetPoint" />
          </mxGeometry>
        </mxCell>
        <mxCell id="Q9K2xUCK_X7UjLqDI4FW-7" value="&lt;font style=&quot;font-size: 17px;&quot;&gt;LeasingDeal&lt;/font&gt;" style="rounded=0;whiteSpace=wrap;html=1;" vertex="1" parent="1">
          <mxGeometry x="180" y="190" width="120" height="60" as="geometry" />
        </mxCell>
        <mxCell id="Q9K2xUCK_X7UjLqDI4FW-22" style="edgeStyle=orthogonalEdgeStyle;rounded=0;orthogonalLoop=1;jettySize=auto;html=1;entryX=0;entryY=0.5;entryDx=0;entryDy=0;fontSize=17;endArrow=none;endFill=0;fillColor=#d5e8d4;strokeColor=#82b366;" edge="1" parent="1" source="Q9K2xUCK_X7UjLqDI4FW-9" target="Q9K2xUCK_X7UjLqDI4FW-10">
          <mxGeometry relative="1" as="geometry">
            <Array as="points">
              <mxPoint x="280" y="100" />
            </Array>
          </mxGeometry>
        </mxCell>
        <mxCell id="Q9K2xUCK_X7UjLqDI4FW-9" value="&lt;u&gt;CarNumber&lt;/u&gt;" style="ellipse;whiteSpace=wrap;html=1;fontSize=17;" vertex="1" parent="1">
          <mxGeometry x="150" y="60" width="120" height="80" as="geometry" />
        </mxCell>
        <mxCell id="Q9K2xUCK_X7UjLqDI4FW-21" style="edgeStyle=orthogonalEdgeStyle;rounded=0;orthogonalLoop=1;jettySize=auto;html=1;fontSize=17;endArrow=none;endFill=0;entryX=0;entryY=0.5;entryDx=0;entryDy=0;fillColor=#d5e8d4;strokeColor=#82b366;" edge="1" parent="1" source="Q9K2xUCK_X7UjLqDI4FW-13" target="Q9K2xUCK_X7UjLqDI4FW-9">
          <mxGeometry relative="1" as="geometry">
            <mxPoint x="130" y="10" as="targetPoint" />
          </mxGeometry>
        </mxCell>
        <mxCell id="Q9K2xUCK_X7UjLqDI4FW-13" value="&lt;u&gt;startDate&lt;/u&gt;" style="ellipse;whiteSpace=wrap;html=1;fontSize=17;" vertex="1" parent="1">
          <mxGeometry x="10" y="30" width="120" height="80" as="geometry" />
        </mxCell>
        <mxCell id="Q9K2xUCK_X7UjLqDI4FW-14" value="endDate" style="ellipse;whiteSpace=wrap;html=1;fontSize=17;" vertex="1" parent="1">
          <mxGeometry x="420" y="180" width="120" height="80" as="geometry" />
        </mxCell>
        <mxCell id="Q9K2xUCK_X7UjLqDI4FW-16" value="" style="edgeStyle=orthogonalEdgeStyle;rounded=0;orthogonalLoop=1;jettySize=auto;html=1;fontSize=17;endArrow=none;endFill=0;" edge="1" parent="1" source="Q9K2xUCK_X7UjLqDI4FW-7" target="Q9K2xUCK_X7UjLqDI4FW-10">
          <mxGeometry relative="1" as="geometry">
            <mxPoint x="310" y="120" as="targetPoint" />
            <mxPoint x="300" y="220" as="sourcePoint" />
          </mxGeometry>
        </mxCell>
        <mxCell id="Q9K2xUCK_X7UjLqDI4FW-10" value="&lt;u&gt;Company&lt;/u&gt;" style="ellipse;whiteSpace=wrap;html=1;fontSize=17;" vertex="1" parent="1">
          <mxGeometry x="280" y="10" width="120" height="80" as="geometry" />
        </mxCell>
        <mxCell id="Q9K2xUCK_X7UjLqDI4FW-19" value="" style="edgeStyle=orthogonalEdgeStyle;rounded=0;orthogonalLoop=1;jettySize=auto;html=1;exitX=0.5;exitY=0;exitDx=0;exitDy=0;fontSize=17;endArrow=none;endFill=0;" edge="1" parent="1" source="Q9K2xUCK_X7UjLqDI4FW-7" target="Q9K2xUCK_X7UjLqDI4FW-11">
          <mxGeometry relative="1" as="geometry">
            <mxPoint x="420" y="160" as="targetPoint" />
            <mxPoint x="240" y="190" as="sourcePoint" />
          </mxGeometry>
        </mxCell>
        <mxCell id="Q9K2xUCK_X7UjLqDI4FW-11" value="&lt;u&gt;EmployeeID&lt;/u&gt;" style="ellipse;whiteSpace=wrap;html=1;fontSize=17;" vertex="1" parent="1">
          <mxGeometry x="370" y="80" width="120" height="80" as="geometry" />
        </mxCell>
        <mxCell id="Q9K2xUCK_X7UjLqDI4FW-23" style="edgeStyle=orthogonalEdgeStyle;rounded=0;orthogonalLoop=1;jettySize=auto;html=1;fontSize=17;endArrow=none;endFill=0;entryX=0.5;entryY=0;entryDx=0;entryDy=0;fillColor=#d5e8d4;strokeColor=#82b366;" edge="1" parent="1" source="Q9K2xUCK_X7UjLqDI4FW-10" target="Q9K2xUCK_X7UjLqDI4FW-11">
          <mxGeometry relative="1" as="geometry">
            <mxPoint x="450" y="40" as="targetPoint" />
            <Array as="points">
              <mxPoint x="340" />
              <mxPoint x="410" />
              <mxPoint x="410" y="30" />
              <mxPoint x="420" y="30" />
              <mxPoint x="420" y="60" />
              <mxPoint x="430" y="60" />
            </Array>
          </mxGeometry>
        </mxCell>
        <mxCell id="Q9K2xUCK_X7UjLqDI4FW-25" style="edgeStyle=orthogonalEdgeStyle;rounded=0;orthogonalLoop=1;jettySize=auto;html=1;fontSize=17;endArrow=none;endFill=0;" edge="1" parent="1" source="Q9K2xUCK_X7UjLqDI4FW-29" target="Q9K2xUCK_X7UjLqDI4FW-31">
          <mxGeometry relative="1" as="geometry">
            <mxPoint x="210" y="400" as="targetPoint" />
          </mxGeometry>
        </mxCell>
        <mxCell id="Q9K2xUCK_X7UjLqDI4FW-26" style="edgeStyle=orthogonalEdgeStyle;rounded=0;orthogonalLoop=1;jettySize=auto;html=1;fontSize=17;endArrow=none;endFill=0;entryX=0.5;entryY=1;entryDx=0;entryDy=0;" edge="1" parent="1" source="Q9K2xUCK_X7UjLqDI4FW-29" target="Q9K2xUCK_X7UjLqDI4FW-33">
          <mxGeometry relative="1" as="geometry">
            <mxPoint x="120" y="440" as="targetPoint" />
          </mxGeometry>
        </mxCell>
        <mxCell id="Q9K2xUCK_X7UjLqDI4FW-27" style="edgeStyle=orthogonalEdgeStyle;rounded=0;orthogonalLoop=1;jettySize=auto;html=1;exitX=0.5;exitY=1;exitDx=0;exitDy=0;fontSize=17;endArrow=none;endFill=0;startArrow=none;" edge="1" parent="1" source="Q9K2xUCK_X7UjLqDI4FW-38">
          <mxGeometry relative="1" as="geometry">
            <mxPoint x="440" y="460" as="targetPoint" />
          </mxGeometry>
        </mxCell>
        <mxCell id="Q9K2xUCK_X7UjLqDI4FW-28" style="edgeStyle=orthogonalEdgeStyle;rounded=0;orthogonalLoop=1;jettySize=auto;html=1;fontSize=17;endArrow=none;endFill=0;" edge="1" parent="1" source="Q9K2xUCK_X7UjLqDI4FW-29">
          <mxGeometry relative="1" as="geometry">
            <mxPoint x="440" y="520" as="targetPoint" />
          </mxGeometry>
        </mxCell>
        <mxCell id="Q9K2xUCK_X7UjLqDI4FW-29" value="&lt;font style=&quot;font-size: 17px;&quot;&gt;Rent&lt;/font&gt;" style="rounded=0;whiteSpace=wrap;html=1;" vertex="1" parent="1">
          <mxGeometry x="200" y="490" width="120" height="60" as="geometry" />
        </mxCell>
        <mxCell id="Q9K2xUCK_X7UjLqDI4FW-31" value="price" style="ellipse;whiteSpace=wrap;html=1;fontSize=17;" vertex="1" parent="1">
          <mxGeometry x="170" y="360" width="120" height="80" as="geometry" />
        </mxCell>
        <mxCell id="Q9K2xUCK_X7UjLqDI4FW-33" value="startDate" style="ellipse;whiteSpace=wrap;html=1;fontSize=17;" vertex="1" parent="1">
          <mxGeometry x="30" y="330" width="120" height="80" as="geometry" />
        </mxCell>
        <mxCell id="Q9K2xUCK_X7UjLqDI4FW-34" value="endDate" style="ellipse;whiteSpace=wrap;html=1;fontSize=17;" vertex="1" parent="1">
          <mxGeometry x="440" y="480" width="120" height="80" as="geometry" />
        </mxCell>
        <mxCell id="Q9K2xUCK_X7UjLqDI4FW-35" value="" style="edgeStyle=orthogonalEdgeStyle;rounded=0;orthogonalLoop=1;jettySize=auto;html=1;fontSize=17;endArrow=none;endFill=0;" edge="1" parent="1" source="Q9K2xUCK_X7UjLqDI4FW-29" target="Q9K2xUCK_X7UjLqDI4FW-36">
          <mxGeometry relative="1" as="geometry">
            <mxPoint x="330" y="420" as="targetPoint" />
            <mxPoint x="320" y="520" as="sourcePoint" />
          </mxGeometry>
        </mxCell>
        <mxCell id="Q9K2xUCK_X7UjLqDI4FW-36" value="&lt;u style=&quot;border-color: var(--border-color);&quot;&gt;CarNumber&lt;/u&gt;" style="ellipse;whiteSpace=wrap;html=1;fontSize=17;" vertex="1" parent="1">
          <mxGeometry x="300" y="310" width="120" height="80" as="geometry" />
        </mxCell>
        <mxCell id="Q9K2xUCK_X7UjLqDI4FW-37" value="" style="edgeStyle=orthogonalEdgeStyle;rounded=0;orthogonalLoop=1;jettySize=auto;html=1;exitX=0.5;exitY=0;exitDx=0;exitDy=0;fontSize=17;endArrow=none;endFill=0;" edge="1" parent="1" source="Q9K2xUCK_X7UjLqDI4FW-29" target="Q9K2xUCK_X7UjLqDI4FW-38">
          <mxGeometry relative="1" as="geometry">
            <mxPoint x="440" y="460" as="targetPoint" />
            <mxPoint x="260" y="490" as="sourcePoint" />
          </mxGeometry>
        </mxCell>
        <mxCell id="Q9K2xUCK_X7UjLqDI4FW-38" value="&lt;u&gt;CustomerID&lt;/u&gt;" style="ellipse;whiteSpace=wrap;html=1;fontSize=17;" vertex="1" parent="1">
          <mxGeometry x="390" y="380" width="120" height="80" as="geometry" />
        </mxCell>
        <mxCell id="Q9K2xUCK_X7UjLqDI4FW-39" style="edgeStyle=orthogonalEdgeStyle;rounded=0;orthogonalLoop=1;jettySize=auto;html=1;fontSize=17;endArrow=none;endFill=0;entryX=0.5;entryY=0;entryDx=0;entryDy=0;fillColor=#d5e8d4;strokeColor=#82b366;" edge="1" parent="1" source="Q9K2xUCK_X7UjLqDI4FW-36" target="Q9K2xUCK_X7UjLqDI4FW-38">
          <mxGeometry relative="1" as="geometry">
            <mxPoint x="470" y="340" as="targetPoint" />
            <Array as="points">
              <mxPoint x="360" y="300" />
              <mxPoint x="430" y="300" />
              <mxPoint x="430" y="330" />
              <mxPoint x="440" y="330" />
              <mxPoint x="440" y="360" />
              <mxPoint x="450" y="360" />
            </Array>
          </mxGeometry>
        </mxCell>
      </root>
    </mxGraphModel>
  </diagram>
</mxfile>
